<svg width="155" height="45" viewBox="0 0 155 45" fill="none" xmlns="http://www.w3.org/2000/svg">
<path d="M37.5731 40.262C36.2709 40.7536 34.9368 41.1663 33.5793 41.4753C33.2535 41.5495 32.9262 41.6174 32.5976 41.6778C28.9662 42.3454 25.2777 42.1139 22.3458 39.6522C19.7691 37.4886 18.3687 34.1167 18.8303 30.764C18.8502 30.6195 18.8999 30.4855 18.9411 30.3557C19.7264 27.7907 21.3382 28.9623 21.3382 28.9623C22.2566 29.2189 23.0071 29.4437 23.7702 29.64C24.6505 29.8648 25.496 29.355 25.458 28.4937C25.4422 28.1833 25.4738 27.949 25.5688 27.7812C25.6512 27.6387 25.7842 27.5532 25.9362 27.5057C26.0438 27.4709 26.2719 27.512 26.3257 27.3917C26.3478 27.3442 26.2782 27.1764 26.2655 27.1225C26.2528 27.0814 26.1293 26.6697 26.1769 26.6507C26.8957 26.3562 27.1902 25.916 26.731 25.137C26.2402 24.301 27.2947 23.997 27.8267 23.6487C28.5582 23.1737 27.8108 22.8127 27.4403 22.4802C26.8324 21.9356 26.3605 21.2199 26.2813 20.3903C26.2307 19.8487 26.2465 19.2724 26.3795 18.7468C27.2883 15.1621 26.6899 11.8847 24.4985 8.89537C24.4669 8.85105 24.4384 8.80353 24.4099 8.75288C24.1755 8.48372 23.9285 8.21772 23.6721 7.96121C25.2997 12.594 24.9355 15.919 22.1647 19.9184C20.8569 21.8057 19.3559 23.5569 18.0101 25.4189C16.1323 28.0155 15.651 30.5963 16.487 33.2373L16.392 33.0726C6.24926 8.57239 31.728 0.98515 35.0909 2.10613C35.0909 2.10613 44.4739 20.7338 24.6522 31.6082C24.6522 31.6082 31.9601 33.1764 34.9551 37.9649C34.1249 36.2861 32.2366 33.6771 28.013 31.41C28.013 31.41 33.9798 32.4827 37.5731 40.262ZM5.62094 19.7506C5.60286 19.703 5.58192 19.656 5.55805 19.6097C5.21538 18.9449 4.39874 18.6838 3.73399 19.0265C3.06924 19.3691 2.80813 20.1857 3.15077 20.8505C3.38996 21.3145 3.61901 21.7261 3.86225 22.1512C4.1021 22.5727 4.34919 22.9879 4.60035 23.3994C5.10064 24.2238 5.62505 25.0302 6.16086 25.8271C7.23903 27.4167 8.39396 28.9493 9.61699 30.4201C10.8288 31.8994 12.161 33.278 13.5401 34.5881L14.5989 35.5452C14.9537 35.8608 15.3349 36.1483 15.7003 36.4499L16.2531 36.8964C16.4389 37.0431 16.6381 37.1738 16.8296 37.3129L17.986 38.1329L16.937 37.1825C16.7644 37.0225 16.5847 36.8714 16.4186 36.7046L15.9262 36.1987C15.6018 35.8582 15.2637 35.5339 14.9527 35.1825L14.0294 34.1221C12.835 32.6793 11.7056 31.1909 10.7032 29.6163C9.69044 28.0511 8.75473 26.4405 7.90272 24.7906C7.48011 23.9638 7.07073 23.1319 6.68871 22.29C6.4965 21.8694 6.30952 21.4479 6.13146 21.0242C5.95384 20.6058 5.77566 20.1669 5.62843 19.7711L5.62094 19.7506ZM11.7244 21.9386C11.5686 21.2048 10.8475 20.7363 10.1137 20.8921C9.37991 21.048 8.91139 21.7691 9.06719 22.5029L9.07931 22.5599C9.10456 22.6788 9.12904 22.7718 9.1536 22.8699C9.17769 22.9689 9.20355 23.0638 9.22979 23.1578C9.28139 23.3472 9.33349 23.5358 9.39062 23.72C9.49866 24.0924 9.62116 24.4565 9.74089 24.821C9.86599 25.1834 9.99543 25.543 10.1274 25.9009C10.2679 26.2559 10.4014 26.6123 10.5474 26.9635C11.1243 28.3707 11.7937 29.7327 12.5404 31.0435C12.8991 31.706 13.3178 32.3357 13.7117 32.9731L14.354 33.8985C14.4624 34.0514 14.5645 34.2078 14.6777 34.3572L15.0219 34.8015C15.9106 36.0044 16.9424 37.0896 17.9861 38.133C17.1095 36.9386 16.2702 35.7311 15.5878 34.4324L15.3218 33.9536C15.2349 33.7932 15.1592 33.6259 15.0775 33.4627L14.5975 32.4807C14.3129 31.8082 14.0069 31.151 13.7622 30.4661C13.2439 29.1118 12.8102 27.73 12.4732 26.3312C12.3872 25.9822 12.314 25.6302 12.234 25.2812C12.1627 24.9301 12.0941 24.5789 12.0302 24.2284C11.972 23.8769 11.9107 23.5264 11.8655 23.1771C11.8391 23.002 11.8191 22.8289 11.7994 22.6564C11.7889 22.5696 11.7791 22.4836 11.7722 22.4007C11.7645 22.3172 11.7555 22.2289 11.7529 22.1655C11.7495 22.0929 11.74 22.012 11.7244 21.9386Z" fill="#001588"/>
<path d="M55.8179 26.5127C54.576 26.5127 53.3683 26.3019 52.1948 25.8804C51.0213 25.4474 49.9618 24.798 49.0161 23.9321C48.0819 23.0662 47.3356 21.9782 46.7773 20.668C46.2191 19.3464 45.9399 17.8083 45.9399 16.0537C45.9399 13.5244 46.4583 11.3597 47.4951 9.55957C48.5433 7.74805 49.9674 6.36377 51.7676 5.40674C53.5677 4.43831 55.5957 3.9541 57.8516 3.9541C58.3529 3.9541 58.9681 4.02246 59.6973 4.15918C60.4264 4.2959 61.1556 4.49528 61.8848 4.75732C62.6139 5.00798 63.2235 5.32129 63.7134 5.69727C63.7931 5.75423 63.7703 5.94222 63.645 6.26123C63.5197 6.58024 63.3431 6.94482 63.1152 7.35498C62.8874 7.76514 62.6481 8.14681 62.3975 8.5C62.1582 8.85319 61.9645 9.09814 61.8164 9.23486L60.7397 8.99561C59.9878 7.89046 59.2131 7.13281 58.4155 6.72266C57.618 6.30111 56.7236 6.09033 55.7324 6.09033C55.3109 6.09033 54.7925 6.23275 54.1772 6.51758C53.562 6.79102 52.9525 7.26383 52.3486 7.93604C51.7562 8.60824 51.2606 9.53109 50.8618 10.7046C50.4631 11.8667 50.2637 13.3364 50.2637 15.1138C50.2637 17.1418 50.5656 18.7995 51.1694 20.0869C51.7733 21.363 52.5537 22.3029 53.5107 22.9067C54.4678 23.5106 55.4818 23.8125 56.5527 23.8125C57.1794 23.8125 57.7376 23.7555 58.2275 23.6416C58.7288 23.5277 59.1789 23.3739 59.5776 23.1802V17.9678C59.5776 17.7969 59.5264 17.6374 59.4238 17.4893C59.3213 17.3298 59.0763 17.1759 58.689 17.0278C58.3016 16.8683 57.6807 16.7145 56.8262 16.5664V15.3188H65.3369V16.5664C64.6875 16.7145 64.2489 16.9196 64.021 17.1816C63.7931 17.4437 63.6792 17.7057 63.6792 17.9678V23.1118C61.993 24.4904 60.5176 25.4019 59.2529 25.8462C57.9997 26.2905 56.8547 26.5127 55.8179 26.5127ZM66.7896 26V24.7524C68.3504 24.4448 69.1309 24.0973 69.1309 23.71V6.77393C69.1309 6.63721 68.9429 6.46631 68.5669 6.26123C68.2023 6.05615 67.6099 5.87386 66.7896 5.71436V4.4668H81.8457L82.5293 5.01367C82.5065 5.40104 82.4552 5.91374 82.3755 6.55176C82.3071 7.18978 82.2217 7.81071 82.1191 8.41455C82.0166 9.01839 81.9198 9.46842 81.8286 9.76465H80.5469C80.4443 7.59993 79.9772 6.51758 79.1455 6.51758H73.4033V13.439H80.2051L80.769 14.0371C80.5868 14.3561 80.3418 14.7492 80.0342 15.2163C79.7266 15.6834 79.4474 16.0081 79.1968 16.1904C78.8436 15.86 78.4277 15.6208 77.9492 15.4727C77.4821 15.3245 76.77 15.2505 75.813 15.2505H73.4033V22.8555C73.4033 23.0719 73.4831 23.2656 73.6426 23.4365C73.8135 23.596 74.1439 23.7214 74.6338 23.8125C75.1351 23.9036 75.887 23.9492 76.8896 23.9492H78.5815C79.6297 23.9492 80.4045 23.6872 80.9058 23.1631C81.4071 22.6276 81.9027 21.6934 82.3926 20.3604L83.6401 20.8047C83.5832 21.4541 83.5091 22.1434 83.418 22.8726C83.3382 23.5903 83.2528 24.234 83.1616 24.8037C83.0819 25.3734 83.0078 25.7721 82.9395 26H66.7896ZM104.609 26.5127C103.527 26.4215 102.65 26.2108 101.978 25.8804C101.317 25.5386 100.833 25.1569 100.525 24.7354L90.083 10.2773V23.71C90.083 23.8467 90.2539 24.0233 90.5957 24.2397C90.9489 24.4562 91.5641 24.6271 92.4414 24.7524V26H85.1782V24.7524C86.0213 24.6499 86.6195 24.4904 86.9727 24.2739C87.3372 24.0461 87.5195 23.8581 87.5195 23.71V6.96191C86.779 6.26693 85.9985 5.85107 85.1782 5.71436V4.4668H89.9463C90.2767 4.4668 90.5273 4.54085 90.6982 4.68896C90.8691 4.83708 91.1654 5.20736 91.5869 5.7998L102.046 20.292V6.77393C102.046 6.63721 101.881 6.46061 101.55 6.24414C101.231 6.01628 100.616 5.83968 99.7046 5.71436V4.4668H106.968V5.71436C106.147 5.82829 105.549 5.99349 105.173 6.20996C104.797 6.42643 104.609 6.61442 104.609 6.77393V26.5127ZM108.42 26V24.7524C109.981 24.4448 110.762 24.0973 110.762 23.71V6.20996C110.317 6.26693 109.896 6.32389 109.497 6.38086C109.11 6.43783 108.751 6.49479 108.42 6.55176L108.198 4.97949C108.95 4.78581 109.867 4.61491 110.95 4.4668C112.043 4.30729 113.171 4.18197 114.333 4.09082C115.507 3.99967 116.584 3.9541 117.563 3.9541C121.061 3.9541 123.767 4.87695 125.681 6.72266C127.595 8.56836 128.552 11.1432 128.552 14.4473C128.552 16.5778 128.239 18.3836 127.612 19.8647C126.997 21.3345 126.182 22.5251 125.168 23.4365C124.154 24.3366 123.044 24.9917 121.836 25.4019C120.628 25.8006 119.438 26 118.264 26H108.42ZM117.632 24.1714C118.293 24.1714 118.988 24.0005 119.717 23.6587C120.457 23.3169 121.147 22.7814 121.785 22.0522C122.434 21.3231 122.958 20.3888 123.357 19.2495C123.767 18.0988 123.972 16.7202 123.972 15.1138C123.972 12.0832 123.317 9.77035 122.007 8.17529C120.708 6.56885 118.817 5.76562 116.333 5.76562C115.911 5.76562 115.479 5.78271 115.034 5.81689V23.1118C115.034 23.5675 115.296 23.8581 115.82 23.9834C116.344 24.1087 116.948 24.1714 117.632 24.1714ZM129.971 26V24.7524C130.745 24.6157 131.338 24.4733 131.748 24.3252C132.17 24.1771 132.437 23.9321 132.551 23.5903L138.516 5.37256C139.051 4.90544 139.666 4.51807 140.361 4.21045C141.068 3.90283 141.717 3.66357 142.31 3.49268L149.487 23.5903C149.601 23.9093 149.801 24.16 150.085 24.3423C150.37 24.5246 150.877 24.6613 151.606 24.7524V26H143.113V24.7524C143.99 24.6955 144.588 24.5815 144.907 24.4106C145.226 24.2397 145.323 23.9663 145.198 23.5903L143.455 18.6514H136.67L135.029 23.5903C134.915 23.9435 135.052 24.1999 135.439 24.3594C135.838 24.5189 136.505 24.6499 137.439 24.7524V26H129.971ZM137.354 16.6006H142.737L139.917 8.65381L137.354 16.6006Z" fill="#001588"/>
<path d="M59.26 40V31.6H63.028C63.996 31.6 64.74 31.796 65.26 32.188C65.78 32.572 66.04 33.1 66.04 33.772C66.04 34.228 65.936 34.612 65.728 34.924C65.528 35.236 65.256 35.476 64.912 35.644C64.568 35.812 64.196 35.896 63.796 35.896L64.012 35.536C64.492 35.536 64.916 35.62 65.284 35.788C65.652 35.956 65.944 36.204 66.16 36.532C66.376 36.852 66.484 37.252 66.484 37.732C66.484 38.452 66.212 39.012 65.668 39.412C65.132 39.804 64.332 40 63.268 40H59.26ZM60.46 39.028H63.22C63.884 39.028 64.392 38.916 64.744 38.692C65.096 38.468 65.272 38.116 65.272 37.636C65.272 37.148 65.096 36.792 64.744 36.568C64.392 36.344 63.884 36.232 63.22 36.232H60.352V35.26H62.92C63.528 35.26 64 35.148 64.336 34.924C64.672 34.7 64.84 34.364 64.84 33.916C64.84 33.468 64.672 33.132 64.336 32.908C64 32.684 63.528 32.572 62.92 32.572H60.46V39.028ZM71.606 40.072C70.926 40.072 70.326 39.932 69.806 39.652C69.294 39.372 68.894 38.988 68.606 38.5C68.326 38.012 68.186 37.452 68.186 36.82C68.186 36.188 68.322 35.628 68.594 35.14C68.874 34.652 69.254 34.272 69.734 34C70.222 33.72 70.77 33.58 71.378 33.58C71.994 33.58 72.538 33.716 73.01 33.988C73.482 34.26 73.85 34.644 74.114 35.14C74.386 35.628 74.522 36.2 74.522 36.856C74.522 36.904 74.518 36.96 74.51 37.024C74.51 37.088 74.506 37.148 74.498 37.204H69.086V36.376H73.898L73.43 36.664C73.438 36.256 73.354 35.892 73.178 35.572C73.002 35.252 72.758 35.004 72.446 34.828C72.142 34.644 71.786 34.552 71.378 34.552C70.978 34.552 70.622 34.644 70.31 34.828C69.998 35.004 69.754 35.256 69.578 35.584C69.402 35.904 69.314 36.272 69.314 36.688V36.88C69.314 37.304 69.41 37.684 69.602 38.02C69.802 38.348 70.078 38.604 70.43 38.788C70.782 38.972 71.186 39.064 71.642 39.064C72.018 39.064 72.358 39 72.662 38.872C72.974 38.744 73.246 38.552 73.478 38.296L74.114 39.04C73.826 39.376 73.466 39.632 73.034 39.808C72.61 39.984 72.134 40.072 71.606 40.072ZM80.4939 40V38.656L80.4339 38.404V36.112C80.4339 35.624 80.2899 35.248 80.0019 34.984C79.7219 34.712 79.2979 34.576 78.7299 34.576C78.3539 34.576 77.9859 34.64 77.6259 34.768C77.2659 34.888 76.9619 35.052 76.7139 35.26L76.2339 34.396C76.5619 34.132 76.9539 33.932 77.4099 33.796C77.8739 33.652 78.3579 33.58 78.8619 33.58C79.7339 33.58 80.4059 33.792 80.8779 34.216C81.3499 34.64 81.5859 35.288 81.5859 36.16V40H80.4939ZM78.4059 40.072C77.9339 40.072 77.5179 39.992 77.1579 39.832C76.8059 39.672 76.5339 39.452 76.3419 39.172C76.1499 38.884 76.0539 38.56 76.0539 38.2C76.0539 37.856 76.1339 37.544 76.2939 37.264C76.4619 36.984 76.7299 36.76 77.0979 36.592C77.4739 36.424 77.9779 36.34 78.6099 36.34H80.6259V37.168H78.6579C78.0819 37.168 77.6939 37.264 77.4939 37.456C77.2939 37.648 77.1939 37.88 77.1939 38.152C77.1939 38.464 77.3179 38.716 77.5659 38.908C77.8139 39.092 78.1579 39.184 78.5979 39.184C79.0299 39.184 79.4059 39.088 79.7259 38.896C80.0539 38.704 80.2899 38.424 80.4339 38.056L80.6619 38.848C80.5099 39.224 80.2419 39.524 79.8579 39.748C79.4739 39.964 78.9899 40.072 78.4059 40.072ZM86.9938 40.072C86.4498 40.072 85.9698 39.972 85.5538 39.772C85.1458 39.572 84.8258 39.268 84.5938 38.86C84.3698 38.444 84.2578 37.924 84.2578 37.3V33.64H85.4098V37.168C85.4098 37.792 85.5578 38.26 85.8538 38.572C86.1578 38.884 86.5818 39.04 87.1258 39.04C87.5258 39.04 87.8738 38.96 88.1698 38.8C88.4658 38.632 88.6938 38.392 88.8538 38.08C89.0138 37.76 89.0938 37.376 89.0938 36.928V33.64H90.2458V40H89.1538V38.284L89.3338 38.74C89.1258 39.164 88.8138 39.492 88.3978 39.724C87.9818 39.956 87.5138 40.072 86.9938 40.072ZM95.2229 40.072C94.5829 40.072 94.0869 39.9 93.7349 39.556C93.3829 39.212 93.2069 38.72 93.2069 38.08V32.248H94.3589V38.032C94.3589 38.376 94.4429 38.64 94.6109 38.824C94.7869 39.008 95.0349 39.1 95.3549 39.1C95.7149 39.1 96.0149 39 96.2549 38.8L96.6149 39.628C96.4389 39.78 96.2269 39.892 95.9789 39.964C95.7389 40.036 95.4869 40.072 95.2229 40.072ZM92.1269 34.588V33.64H96.1829V34.588H92.1269ZM98.7664 42.4C98.4624 42.4 98.1664 42.348 97.8784 42.244C97.5904 42.148 97.3424 42.004 97.1344 41.812L97.6264 40.948C97.7864 41.1 97.9624 41.216 98.1544 41.296C98.3464 41.376 98.5504 41.416 98.7664 41.416C99.0464 41.416 99.2784 41.344 99.4624 41.2C99.6464 41.056 99.8184 40.8 99.9784 40.432L100.374 39.556L100.494 39.412L102.99 33.64H104.118L101.034 40.636C100.85 41.084 100.642 41.436 100.41 41.692C100.186 41.948 99.9384 42.128 99.6664 42.232C99.3944 42.344 99.0944 42.4 98.7664 42.4ZM100.278 40.204L97.3744 33.64H98.5744L101.046 39.304L100.278 40.204ZM109.784 40V31.6H113.552C114.52 31.6 115.264 31.796 115.784 32.188C116.304 32.572 116.564 33.1 116.564 33.772C116.564 34.228 116.46 34.612 116.252 34.924C116.052 35.236 115.78 35.476 115.436 35.644C115.092 35.812 114.72 35.896 114.32 35.896L114.536 35.536C115.016 35.536 115.44 35.62 115.808 35.788C116.176 35.956 116.468 36.204 116.684 36.532C116.9 36.852 117.008 37.252 117.008 37.732C117.008 38.452 116.736 39.012 116.192 39.412C115.656 39.804 114.856 40 113.792 40H109.784ZM110.984 39.028H113.744C114.408 39.028 114.916 38.916 115.268 38.692C115.62 38.468 115.796 38.116 115.796 37.636C115.796 37.148 115.62 36.792 115.268 36.568C114.916 36.344 114.408 36.232 113.744 36.232H110.876V35.26H113.444C114.052 35.26 114.524 35.148 114.86 34.924C115.196 34.7 115.364 34.364 115.364 33.916C115.364 33.468 115.196 33.132 114.86 32.908C114.524 32.684 114.052 32.572 113.444 32.572H110.984V39.028ZM119.298 40V31.096H120.45V40H119.298ZM125.974 40.072C125.334 40.072 124.766 39.932 124.27 39.652C123.774 39.372 123.382 38.988 123.094 38.5C122.806 38.004 122.662 37.444 122.662 36.82C122.662 36.188 122.806 35.628 123.094 35.14C123.382 34.652 123.774 34.272 124.27 34C124.766 33.72 125.334 33.58 125.974 33.58C126.606 33.58 127.17 33.72 127.666 34C128.17 34.272 128.562 34.652 128.842 35.14C129.13 35.62 129.274 36.18 129.274 36.82C129.274 37.452 129.13 38.012 128.842 38.5C128.562 38.988 128.17 39.372 127.666 39.652C127.17 39.932 126.606 40.072 125.974 40.072ZM125.974 39.064C126.382 39.064 126.746 38.972 127.066 38.788C127.394 38.604 127.65 38.344 127.834 38.008C128.018 37.664 128.11 37.268 128.11 36.82C128.11 36.364 128.018 35.972 127.834 35.644C127.65 35.308 127.394 35.048 127.066 34.864C126.746 34.68 126.382 34.588 125.974 34.588C125.566 34.588 125.202 34.68 124.882 34.864C124.562 35.048 124.306 35.308 124.114 35.644C123.922 35.972 123.826 36.364 123.826 36.82C123.826 37.268 123.922 37.664 124.114 38.008C124.306 38.344 124.562 38.604 124.882 38.788C125.202 38.972 125.566 39.064 125.974 39.064ZM134.251 42.4C133.667 42.4 133.099 42.316 132.547 42.148C132.003 41.988 131.559 41.756 131.215 41.452L131.767 40.564C132.063 40.82 132.427 41.02 132.859 41.164C133.291 41.316 133.743 41.392 134.215 41.392C134.967 41.392 135.519 41.216 135.871 40.864C136.223 40.512 136.399 39.976 136.399 39.256V37.912L136.519 36.652L136.459 35.38V33.64H137.551V39.136C137.551 40.256 137.271 41.08 136.711 41.608C136.151 42.136 135.331 42.4 134.251 42.4ZM134.107 39.736C133.491 39.736 132.939 39.608 132.451 39.352C131.971 39.088 131.587 38.724 131.299 38.26C131.019 37.796 130.879 37.26 130.879 36.652C130.879 36.036 131.019 35.5 131.299 35.044C131.587 34.58 131.971 34.22 132.451 33.964C132.939 33.708 133.491 33.58 134.107 33.58C134.651 33.58 135.147 33.692 135.595 33.916C136.043 34.132 136.399 34.468 136.663 34.924C136.935 35.38 137.071 35.956 137.071 36.652C137.071 37.34 136.935 37.912 136.663 38.368C136.399 38.824 136.043 39.168 135.595 39.4C135.147 39.624 134.651 39.736 134.107 39.736ZM134.239 38.728C134.663 38.728 135.039 38.64 135.367 38.464C135.695 38.288 135.951 38.044 136.135 37.732C136.327 37.42 136.423 37.06 136.423 36.652C136.423 36.244 136.327 35.884 136.135 35.572C135.951 35.26 135.695 35.02 135.367 34.852C135.039 34.676 134.663 34.588 134.239 34.588C133.815 34.588 133.435 34.676 133.099 34.852C132.771 35.02 132.511 35.26 132.319 35.572C132.135 35.884 132.043 36.244 132.043 36.652C132.043 37.06 132.135 37.42 132.319 37.732C132.511 38.044 132.771 38.288 133.099 38.464C133.435 38.64 133.815 38.728 134.239 38.728Z" fill="#666666"/>
</svg>
