<svg width="40" height="40" viewBox="0 0 40 40" fill="none" xmlns="http://www.w3.org/2000/svg">
<path d="M33.9656 12.4927C33.8441 11.8273 33.6774 11.1418 33.4693 10.4535C31.6531 4.48743 26.3215 -1.10829 20.0002 0.188933C13.6746 -1.10657 8.34671 4.48611 6.53052 10.4543C6.33645 11.0959 6.1698 11.7806 6.03508 12.4898C5.65144 14.5299 5.24394 17.5272 6.13362 19.9912C6.19959 20.1737 6.27618 20.3518 6.36176 20.5247V29.1071C6.36176 30.0674 6.73506 30.9704 7.412 31.6491L10.8622 35.109C11.3252 35.5732 11.5799 36.1896 11.5799 36.8445V39.4297C11.5799 39.7446 11.8348 40 12.1488 40H17.2293C17.5434 40 17.7982 39.7446 17.7982 39.4297V34.4114C18.514 34.6392 19.2495 34.7732 20.0033 34.7732C20.7544 34.7732 21.4881 34.6399 22.2017 34.4136V39.4296C22.2017 39.7445 22.4566 39.9999 22.7705 39.9999H27.8517C28.1658 39.9999 28.4206 39.7445 28.4206 39.4296V36.8444C28.4206 36.1887 28.6753 35.5723 29.1375 35.1089L32.5877 31.649C33.2654 30.9695 33.6388 30.0665 33.6388 29.107V20.5267C33.7243 20.353 33.8009 20.1744 33.8662 19.9911C34.7566 17.5248 34.3484 14.5283 33.9656 12.4927ZM6.88673 18.3275C6.56112 16.3964 6.86051 14.2571 7.15261 12.7021C7.28005 12.0329 7.43637 11.3884 7.61918 10.786C9.29693 5.26893 14.1537 0.0712569 19.8801 1.32187C19.9956 1.3463 20.109 1.37539 20.2237 1.40435L20.2904 1.42068C22.4118 1.99552 24.7368 3.67539 25.1479 6.13118C25.3064 7.09889 25.0612 8.03605 24.4167 8.92274C24.179 9.2577 23.8812 9.57992 23.5338 9.87849C22.5975 10.6812 21.4483 11.3707 19.8151 12.1106C19.6666 12.1534 19.4539 12.2376 19.1014 12.3917L18.1651 12.809C17.7347 13.0013 17.3133 13.1833 16.894 13.3644C16.4674 13.5486 16.0429 13.7313 15.6127 13.9244C13.9246 14.6818 12.6114 15.3793 11.4787 16.1196C10.7936 16.5674 10.1544 17.0449 9.57737 17.5387L9.50185 17.6033C9.43562 17.6596 9.367 17.7191 9.29891 17.7793C9.04112 17.666 8.75817 17.601 8.45971 17.601C7.83073 17.6013 7.27183 17.8863 6.88673 18.3275ZM16.6604 38.8594H12.7176V36.8445C12.7176 35.8851 12.3443 34.982 11.6666 34.3025L8.21637 30.8426C7.75417 30.3792 7.49929 29.7628 7.49929 29.1071V19.7051C7.49929 19.1741 7.93034 18.7419 8.45996 18.7419C8.98959 18.7419 9.42064 19.1741 9.42064 19.7051V26.4007C9.42064 27.1916 9.67329 27.9431 10.1413 28.564C10.202 28.6569 10.2731 28.7452 10.3546 28.8269L12.313 30.7904C12.3182 30.7956 12.3234 30.8008 12.3286 30.8053L12.8619 31.34C13.084 31.5628 13.4441 31.5628 13.6662 31.34C13.8884 31.1173 13.8884 30.7563 13.6662 30.5336L11.2745 28.1364C11.2033 28.065 11.1375 27.99 11.0759 27.912C10.9633 27.7137 10.9907 27.4561 11.1588 27.2875C11.3543 27.0915 11.6944 27.0915 11.8899 27.2875L15.943 31.3505C16.4052 31.8139 16.66 32.431 16.66 33.0869L16.6604 38.8594ZM22.2015 33.0869V33.1999C21.4871 33.4704 20.7527 33.6327 20.0032 33.6327C19.2481 33.6327 18.5122 33.4755 17.798 33.2125V33.0869C17.798 32.1259 17.4247 31.2229 16.7477 30.5441L12.6952 26.4811C12.2812 26.0659 11.6597 25.9223 11.1083 26.0572C10.9087 25.6195 10.725 25.1751 10.5583 24.7249V19.7051C10.5583 19.2638 10.421 18.8548 10.1883 18.5161C10.2053 18.5018 10.2213 18.4876 10.2383 18.4731L10.3168 18.4063C10.8561 17.9444 11.4567 17.4965 12.1004 17.0748C13.1966 16.3589 14.4233 15.7084 16.078 14.9657C16.5025 14.7748 16.9224 14.5943 17.3439 14.4123C17.7684 14.2289 18.1943 14.0455 18.6298 13.8501L19.5587 13.4364C19.6342 13.4029 19.8409 13.3175 19.9935 13.2574C21.5519 13.8655 23.0548 14.5421 24.3289 15.1281C26.3029 16.0363 28.1191 17.1467 29.7271 18.4262C29.7608 18.453 29.7882 18.4797 29.8197 18.5064C29.5831 18.8471 29.4419 19.2592 29.4419 19.7051V24.7138C29.2715 25.1658 29.0845 25.6134 28.8793 26.0548C28.3308 25.9243 27.7153 26.0688 27.3049 26.4809L23.2518 30.5439C22.575 31.2228 22.2015 32.1258 22.2015 33.0869ZM32.5011 29.107C32.5011 29.762 32.2462 30.3784 31.7833 30.8425L28.3331 34.3024C27.6561 34.9812 27.2828 35.8843 27.2828 36.8444V38.8592H23.3392V33.0867C23.3392 32.431 23.5941 31.8138 24.0563 31.3504L28.1094 27.2874C28.3049 27.0914 28.6448 27.0906 28.8405 27.2882C28.9383 27.3854 28.9923 27.5154 28.9923 27.6536C28.9923 27.7449 28.9686 27.8333 28.9242 27.9106C28.8627 27.9893 28.7961 28.0642 28.725 28.1364L26.334 30.5336C26.1118 30.7563 26.1118 31.1173 26.334 31.34C26.5561 31.5628 26.9162 31.5628 27.1384 31.34L27.6849 30.792C27.6857 30.7912 27.6857 30.7912 27.6864 30.7906L29.6448 28.827C29.7271 28.7445 29.7997 28.6554 29.8619 28.5596C30.3278 27.9403 30.5796 27.1902 30.5796 26.4008V19.7051C30.5796 19.1741 31.0106 18.7419 31.5403 18.7419C32.0699 18.7419 32.5009 19.1741 32.5009 19.7051L32.5011 29.107ZM31.5404 17.6013C31.2456 17.6013 30.9656 17.6637 30.7109 17.7742C30.6228 17.6931 30.5343 17.612 30.4339 17.5322C28.7546 16.1962 26.8599 15.0384 24.803 14.0916C23.7923 13.6263 22.6379 13.1045 21.4227 12.6031C22.5841 12.0094 23.4915 11.4161 24.274 10.7453C24.6925 10.3859 25.0526 9.99524 25.3407 9.58975C26.1555 8.46903 26.4769 7.20886 26.2703 5.94484C26.2303 5.7063 26.171 5.47626 26.1036 5.25034C26.0859 5.19044 26.0665 5.1316 26.0469 5.07263C25.9825 4.8807 25.9103 4.69303 25.8277 4.51094C25.814 4.48026 25.8025 4.44839 25.7881 4.41811C25.6903 4.21104 25.5796 4.01181 25.4603 3.8183C25.4296 3.76836 25.397 3.72002 25.3648 3.67101C25.2638 3.51601 25.1563 3.36539 25.0431 3.21943C25.0113 3.17878 24.9816 3.13708 24.949 3.0971C24.8075 2.92338 24.6582 2.75656 24.5016 2.59651C24.4639 2.55773 24.4235 2.52094 24.3847 2.48296C24.2565 2.35731 24.1244 2.23645 23.9881 2.11997C23.9396 2.07853 23.8917 2.03656 23.8422 1.99631C23.6718 1.85725 23.4974 1.7239 23.3173 1.59906C23.2792 1.57263 23.24 1.54912 23.2014 1.52335C23.0515 1.42267 22.8989 1.32705 22.7444 1.23633C22.7126 1.2176 22.6821 1.19542 22.6499 1.17709C27.2349 1.65603 30.9562 6.10369 32.3807 10.7854C32.5762 11.4315 32.7325 12.0746 32.8466 12.7014C33.1399 14.2558 33.4395 16.3936 33.1132 18.3267C32.7278 17.8859 32.1692 17.6013 31.5404 17.6013ZM15.4774 22.3051C14.3301 22.3051 13.2776 21.7274 12.6626 20.7605C12.4937 20.4946 12.5723 20.1418 12.8367 19.9725C13.1034 19.8046 13.4522 19.8811 13.6225 20.147C13.6951 20.2612 13.7866 20.3568 13.8766 20.4538C14.2873 20.8978 14.8558 21.1644 15.4773 21.1644C16.098 21.1644 16.6665 20.8978 17.0783 20.4538C17.1683 20.3568 17.2602 20.2612 17.3328 20.147C17.5002 19.8811 17.8527 19.8025 18.118 19.9733C18.3832 20.1426 18.4609 20.4954 18.2914 20.7605C17.6759 21.7274 16.6241 22.3051 15.4774 22.3051ZM22.8157 28.2263C22.2002 29.1932 21.1484 29.7709 20.0025 29.7709C18.8558 29.7709 17.8041 29.1932 17.1893 28.2263C17.0204 27.9604 17.099 27.6076 17.3634 27.4384C17.6293 27.2699 17.9797 27.3478 18.1494 27.6129C18.222 27.7273 18.3134 27.8229 18.4034 27.9199C18.8145 28.3639 19.3827 28.6303 20.0026 28.6303C20.6226 28.6303 21.1912 28.3639 21.6026 27.9199C21.693 27.8229 21.7845 27.7273 21.8574 27.6129C22.0255 27.3478 22.3767 27.2684 22.6425 27.4392C22.9075 27.6084 22.9852 27.961 22.8157 28.2263ZM27.3421 20.7605C26.7267 21.7274 25.6748 22.3051 24.5281 22.3051C23.3808 22.3051 22.3282 21.7274 21.7134 20.7605C21.5445 20.4946 21.623 20.1418 21.8875 19.9725C22.1527 19.8046 22.5037 19.8811 22.6734 20.147C22.746 20.2612 22.8376 20.3568 22.9275 20.4538C23.3382 20.8978 23.9067 21.1644 24.5281 21.1644C25.1489 21.1644 25.7173 20.8978 26.1292 20.4538C26.2192 20.3568 26.3111 20.2612 26.3837 20.147C26.5518 19.8811 26.9022 19.8025 27.1688 19.9733C27.4339 20.1426 27.5117 20.4954 27.3421 20.7605Z" fill="#FD8763"/>
</svg>
