<svg width="40" height="40" viewBox="0 0 40 40" fill="none" xmlns="http://www.w3.org/2000/svg">
<path d="M20.7091 18.3479V18.3597C20.7091 18.6931 20.4387 18.9635 20.1053 18.9635C19.7719 18.9635 19.5015 18.6931 19.5015 18.3597C19.5015 18.0263 19.7719 17.7496 20.1053 17.7496C20.4387 17.7496 20.7091 18.0145 20.7091 18.3479ZM32.7788 23.8608C33.9008 29.2959 32.054 34.999 30.5711 39.5825C30.4878 39.8373 30.2511 40 29.9965 40C29.9352 40 29.8723 39.9906 29.8102 39.9709C29.4934 39.8678 29.3196 39.5274 29.4218 39.2099C30.6353 35.4623 31.9743 31.3136 31.9176 27.1782C29.8043 28.1597 27.7574 29.2811 25.8297 30.5325C24.0348 31.6993 22.3149 32.9939 20.7091 34.3776V39.3962C20.7091 39.7296 20.4387 40 20.1053 40C19.7719 40 19.5015 39.7295 19.5015 39.3962V34.3776C17.8954 32.993 16.1752 31.6984 14.3802 30.5325C12.454 29.2817 10.4074 28.1603 8.29247 27.1782C8.2358 31.3121 9.57525 35.4616 10.7879 39.2106C10.8901 39.5274 10.7163 39.8678 10.3987 39.9709C10.3373 39.9906 10.2745 40 10.213 40C9.95826 40 9.72092 39.8373 9.63838 39.5817C8.15552 34.9981 6.30961 29.2926 7.43069 23.8608C7.59773 23.0494 7.83129 22.256 8.08214 21.4767C8.08256 21.4752 8.08298 21.4734 8.08368 21.4718C8.22992 21.0182 8.38049 20.5681 8.53136 20.1255C8.77897 19.3998 9.03448 18.6498 9.24834 17.9092C10.8617 12.3272 10.3608 6.11378 7.87558 0.862731C7.73244 0.560843 7.86135 0.200738 8.16254 0.0584419C8.46766 -0.0846982 8.8254 0.0442426 8.96685 0.345427C9.36393 1.18472 9.70701 2.04933 10.0069 2.92954C11.0452 4.53797 12.8329 5.49903 14.798 5.49903C16.7777 5.49903 18.5725 4.53122 19.5986 2.91084C19.7095 2.73634 19.902 2.63019 20.1089 2.63019H20.1097C20.3172 2.63019 20.5099 2.73705 20.62 2.91238C21.6381 4.53192 23.4291 5.49903 25.4111 5.49903C27.3766 5.49903 29.1652 4.53754 30.203 2.92813C30.5029 2.04876 30.8457 1.18472 31.2424 0.346268C31.3847 0.0443805 31.7464 -0.0838545 32.0459 0.0584419C32.3477 0.200738 32.4767 0.560845 32.3337 0.861889C29.8484 6.11448 29.3477 12.3279 30.9609 17.9092C31.1748 18.6498 31.4302 19.3998 31.6779 20.1255C31.8287 20.5681 31.9793 21.0182 32.1256 21.4718C32.1264 21.4734 32.1267 21.4752 32.1271 21.4767C32.3784 22.256 32.6118 23.0494 32.7788 23.8608ZM9.47542 21.1044H30.7344C30.668 20.9077 30.6015 20.7103 30.5351 20.5155C30.2836 19.7765 30.0225 19.0123 29.8009 18.2441C28.6023 14.0967 28.5209 9.61789 29.4977 5.39835C28.3369 6.23751 26.9166 6.70645 25.4114 6.70645C23.3122 6.70645 21.3867 5.80542 20.1076 4.25971C18.8213 5.80542 16.8944 6.70645 14.7983 6.70645C13.2935 6.70645 11.8732 6.23766 10.7128 5.39878C11.6893 9.61776 11.6075 14.096 10.4089 18.244C10.1872 19.0121 9.92622 19.7763 9.67467 20.5154C9.6083 20.7103 9.54179 20.9077 9.47542 21.1044ZM31.8513 25.8748C31.7985 25.2832 31.7177 24.6927 31.5965 24.1046C31.4726 23.5052 31.3086 22.906 31.1267 22.3121H9.08298C8.90103 22.906 8.73707 23.5052 8.6132 24.1046C8.49171 24.6926 8.41114 25.2832 8.35841 25.8747C10.6824 26.9284 12.9298 28.1505 15.0372 29.52C16.8101 30.6713 18.51 31.947 20.105 33.3076C21.7003 31.9476 23.3992 30.672 25.1722 29.52C27.2817 28.1498 29.5291 26.9276 31.8513 25.8748ZM35.3609 17.5099C35.1691 17.0617 34.783 16.7472 34.4418 16.4705C34.1966 16.2708 33.919 16.0451 33.8687 15.8746C33.8175 15.6969 33.9331 15.354 34.0362 15.0515C34.1754 14.6395 34.3326 14.1717 34.2571 13.6968C34.1808 13.218 33.8844 12.821 33.6226 12.4703C33.4331 12.2155 33.2177 11.9278 33.2122 11.7477C33.2059 11.5669 33.4025 11.2641 33.5763 10.9977C33.8137 10.6313 34.0833 10.217 34.129 9.73587C34.1738 9.25625 33.9867 8.79955 33.8216 8.39614C33.7014 8.10058 33.5637 7.76635 33.6038 7.58792C33.6432 7.41342 33.9081 7.17045 34.1415 6.95659C34.4646 6.66103 34.8302 6.3261 34.9954 5.86926C35.1086 5.55556 34.9466 5.20966 34.6329 5.09647C34.3201 4.98398 33.974 5.14442 33.8601 5.45896C33.7957 5.63585 33.5574 5.85435 33.3264 6.06597C32.9615 6.40006 32.548 6.779 32.4262 7.32386C32.3027 7.87266 32.5158 8.39389 32.7045 8.85382C32.8224 9.14151 32.9435 9.43876 32.9262 9.62268C32.9089 9.80828 32.7336 10.0778 32.5637 10.3396C32.2932 10.7556 31.9867 11.2265 32.0047 11.7878C32.0235 12.346 32.3593 12.7957 32.6548 13.1927C32.842 13.4427 33.0353 13.7022 33.0644 13.8862C33.0935 14.0671 32.9913 14.3713 32.8915 14.6646C32.7327 15.1355 32.5518 15.6701 32.7091 16.2111C32.8641 16.745 33.298 17.0972 33.6801 17.4076C33.9247 17.6058 34.1762 17.8102 34.2509 17.9847C34.3483 18.2135 34.5716 18.3511 34.806 18.3511C34.8854 18.3511 34.9656 18.3354 35.0435 18.3023C35.3497 18.1719 35.4922 17.8164 35.3609 17.5099ZM7.50154 16.2111C7.65804 15.6694 7.47722 15.1355 7.31833 14.6646C7.21934 14.3713 7.11626 14.0679 7.14453 13.8871C7.17434 13.7023 7.36784 13.4436 7.55499 13.1929C7.85055 12.7958 8.18717 12.3461 8.20517 11.7872C8.22331 11.2266 7.91663 10.7557 7.64624 10.3398C7.47638 10.078 7.30102 9.80828 7.28373 9.62281C7.26643 9.4389 7.38835 9.14166 7.50618 8.85397C7.69403 8.39404 7.9079 7.87279 7.78444 7.324C7.66253 6.77914 7.24902 6.4002 6.88428 6.06681C6.65312 5.85534 6.41409 5.63683 6.34969 5.4591C6.23565 5.14455 5.88819 4.98496 5.57689 5.09661C5.26319 5.2098 5.10122 5.5557 5.21441 5.8694C5.37949 6.32624 5.7459 6.66187 6.06902 6.95757C6.30257 7.17144 6.56747 7.41357 6.60684 7.58807C6.64621 7.7665 6.50941 8.10072 6.38834 8.39544C6.22327 8.7987 6.03611 9.25639 6.08096 9.73587C6.12652 10.217 6.39623 10.6314 6.63372 10.9977C6.80751 11.2643 7.00407 11.5669 6.99774 11.7477C6.99225 11.9277 6.77685 12.2162 6.58731 12.4703C6.32549 12.821 6.02908 13.2179 5.95203 13.6975C5.87736 14.1724 6.03541 14.6395 6.17447 15.0513C6.2767 15.354 6.39299 15.6975 6.34124 15.8744C6.29175 16.0458 6.01418 16.2715 5.76882 16.4703C5.42756 16.7471 5.04088 17.0608 4.84895 17.5097C4.71762 17.8155 4.85992 18.1709 5.16659 18.3022C5.24365 18.3352 5.32463 18.351 5.40408 18.351C5.63833 18.351 5.86092 18.2142 5.9592 17.9846C6.03386 17.8108 6.28627 17.6056 6.52995 17.4075C6.91268 17.097 7.34673 16.7448 7.50154 16.2111Z" fill="#FD8763"/>
</svg>
