<svg width="40" height="40" viewBox="0 0 40 40" fill="none" xmlns="http://www.w3.org/2000/svg">
<path d="M23.2814 17.7297C23.2814 16.1578 20.9595 12.2028 20.6944 11.757C20.4941 11.4186 19.9363 11.4186 19.736 11.757C19.4709 12.2028 17.149 16.1578 17.149 17.7297C17.149 19.4991 18.5242 20.939 20.2153 20.939C21.9064 20.939 23.2814 19.4991 23.2814 17.7297ZM20.2153 19.8236C19.1392 19.8236 18.2643 18.8841 18.2643 17.7296C18.2643 16.9258 19.3207 14.768 20.2153 13.1611C21.1098 14.768 22.1662 16.9251 22.1662 17.7296C22.1662 18.8841 21.2913 19.8236 20.2153 19.8236ZM26.7332 9.43573C28.4242 9.43573 29.7995 7.9959 29.7995 6.22649C29.7995 4.6546 27.4776 0.699595 27.2125 0.253802C27.0122 -0.0846006 26.4544 -0.0846006 26.2541 0.253802C25.989 0.699595 23.6671 4.6546 23.6671 6.22649C23.6669 7.9959 25.0422 9.43573 26.7332 9.43573ZM26.7332 1.65806C27.6278 3.26489 28.6842 5.42204 28.6842 6.22649C28.6842 7.38091 27.8092 8.32054 26.7332 8.32054C25.6572 8.32054 24.7823 7.38103 24.7823 6.22649C24.7823 5.42269 25.8386 3.26476 26.7332 1.65806ZM13.6965 12.5993C15.3875 12.5993 16.7635 11.1594 16.7635 9.39002C16.7635 7.81813 14.4407 3.86313 14.1757 3.41734C13.9753 3.07893 13.4177 3.07893 13.2173 3.41734C12.9522 3.86313 10.6303 7.81813 10.6303 9.39002C10.6303 11.1594 12.0054 12.5993 13.6965 12.5993ZM13.6965 4.82146C14.5918 6.42829 15.6483 8.58622 15.6483 9.38989C15.6483 10.5443 14.7726 11.4839 13.6965 11.4839C12.6204 11.4839 11.7456 10.5444 11.7456 9.38989C11.7456 8.58622 12.802 6.42829 13.6965 4.82146ZM18.2098 34.4679H17.189V27.9572C17.189 26.8013 16.7388 25.7136 15.9206 24.8962L10.8548 19.8296C10.1084 19.0832 8.89293 19.0832 8.14653 19.8296C8.14588 19.8304 8.14588 19.8304 8.1451 19.831C8.14068 19.7613 8.13862 19.6917 8.13862 19.6212V11.2734C8.13862 9.91126 7.03068 8.80334 5.66928 8.80334C4.30787 8.80334 3.19995 9.91139 3.19995 11.2734V22.9952C3.19995 24.1518 3.65017 25.2389 4.46774 26.0564L8.78139 30.3701C9.38834 30.977 9.72245 31.7838 9.72245 32.6427V34.468H8.70153C8.39365 34.468 8.14393 34.7178 8.14393 35.0256V39.4424C8.14393 39.7503 8.39365 40 8.70153 40H18.2102C18.5181 40 18.7678 39.7502 18.7678 39.4424V35.0256C18.7674 34.7178 18.5177 34.4679 18.2098 34.4679ZM9.56948 29.5815L5.25582 25.2678C4.64888 24.6609 4.3149 23.8541 4.3149 22.9952V11.2734C4.3149 10.5263 4.92261 9.91854 5.66902 9.91854C6.41543 9.91854 7.02315 10.5263 7.02315 11.2734V19.6212C7.02315 20.576 7.32961 21.4829 7.89669 22.23C7.96785 22.3389 8.05057 22.442 8.1464 22.5379L11.2802 25.6717C11.498 25.8894 11.8509 25.8894 12.0687 25.6717C12.2864 25.4539 12.2864 25.1009 12.0687 24.8832L9.07942 21.8939C8.98358 21.7981 8.89423 21.6972 8.81216 21.5919C8.63062 21.2848 8.67128 20.8818 8.93488 20.6182C9.24706 20.306 9.75388 20.306 10.0662 20.6182L15.132 25.6848C15.739 26.2917 16.0737 27.0992 16.0737 27.9574V34.468H10.8373V32.6427C10.8373 31.4859 10.387 30.399 9.56948 29.5815ZM17.6522 38.8847H9.25874V35.5832H10.2797H16.6314H17.6523L17.6522 38.8847ZM34.7614 8.80334C33.4 8.80334 32.2921 9.91139 32.2921 11.2734V19.6212C32.2921 19.6916 32.2899 19.7613 32.2856 19.831C32.2848 19.8303 32.2848 19.8302 32.2841 19.8296C31.5377 19.0832 30.3223 19.0832 29.5759 19.8296L24.5093 24.8962C23.6918 25.7137 23.2415 26.8006 23.2415 27.9572V34.4679H22.22C21.9121 34.4679 21.6624 34.7176 21.6624 35.0255V39.4423C21.6624 39.7502 21.9121 39.9999 22.22 39.9999H31.7294C32.0373 39.9999 32.287 39.75 32.287 39.4423V35.0255C32.287 34.7176 32.0373 34.4679 31.7294 34.4679H30.7078V32.6425C30.7078 31.7843 31.0426 30.9769 31.6495 30.3699L35.9624 26.0563C36.78 25.2395 37.2308 24.1518 37.2308 22.9951V11.2733C37.2308 9.91126 36.1228 8.80334 34.7614 8.80334ZM31.1718 38.8847H22.7776V35.5832H23.7991H30.1501H31.1717L31.1718 38.8847ZM36.1157 22.9952C36.1157 23.8542 35.7809 24.6609 35.1739 25.2678L30.8611 29.5815C30.0428 30.399 29.5926 31.4867 29.5926 32.6427V34.468H24.3569V27.9574C24.3569 27.0984 24.6909 26.2917 25.2978 25.6848L30.3644 20.6182C30.6765 20.306 31.1834 20.306 31.4957 20.6182C31.7585 20.881 31.7999 21.2818 31.6198 21.5882C31.5371 21.695 31.447 21.7966 31.3505 21.8939L28.362 24.8832C28.1442 25.1009 28.1442 25.4539 28.362 25.6717C28.5798 25.8894 28.9327 25.8894 29.1505 25.6717L29.8279 24.9942C29.8308 24.9913 29.833 24.9891 29.836 24.9863L32.2843 22.538C32.3815 22.4407 32.4665 22.3354 32.5384 22.2244C33.1025 21.478 33.4075 20.5725 33.4075 19.6214V11.2737C33.4075 10.5265 34.0152 9.91879 34.7617 9.91879C35.5081 9.91879 36.1158 10.5265 36.1158 11.2737L36.1157 22.9952Z" fill="#FD8763"/>
</svg>
