<svg width="40" height="40" viewBox="0 0 40 40" fill="none" xmlns="http://www.w3.org/2000/svg">
<path d="M37.9741 36.3521H35.4238V13.0039C35.4238 12.7189 35.1927 12.4878 34.9077 12.4878H30.7135C31.3247 10.9254 31.653 9.27808 31.653 7.56775C31.653 5.5906 31.2391 3.6894 30.4232 1.91657C30.3392 1.73376 30.1564 1.61681 29.9554 1.61621H29.9541C29.7539 1.61621 29.5717 1.73244 29.4863 1.91393C28.6617 3.6781 28.2437 5.5799 28.2437 7.56787C28.2437 9.28288 28.5565 10.9339 29.1714 12.4879H24.8485C24.5635 12.4879 24.3324 12.719 24.3324 13.004V36.3522H18.4511C21.2867 35.0786 23.196 32.7534 23.196 30.0927C23.196 27.8239 21.8344 25.7264 19.4608 24.3374C17.2753 23.0582 15.8826 20.751 15.7151 18.2349C16.4528 18.1556 17.0306 17.5372 17.0306 16.7789C17.0306 15.9671 16.3707 15.3071 15.5589 15.3071H15.482L15.6779 14.2849C15.7464 13.928 15.653 13.5631 15.4219 13.2836C15.1907 13.0033 14.8493 12.8427 14.4864 12.8427H12.5308C12.1679 12.8427 11.8264 13.0033 11.5953 13.2829C11.3642 13.5624 11.2701 13.9273 11.3386 14.2842L11.5345 15.307H11.4576C10.6458 15.307 9.98583 15.967 9.98583 16.7788C9.98583 17.5373 10.5641 18.1559 11.3021 18.2348C11.1348 20.7504 9.74088 23.058 7.55436 24.3372C5.18201 25.7257 3.82181 27.8232 3.82181 30.0926C3.82181 32.7532 5.73046 35.0785 8.56446 36.3521H1.27074C0.985761 36.3521 0.754639 36.5832 0.754639 36.8682C0.754639 37.1532 0.985761 37.3843 1.27074 37.3843H13.5066H24.8487H32.9374H34.9078H37.9744C38.2594 37.3843 38.4905 37.1532 38.4905 36.8682C38.4902 36.5832 38.2591 36.3521 37.9741 36.3521ZM29.9506 3.50923C30.3956 4.80562 30.6207 6.16584 30.6207 7.56775C30.6207 8.97027 30.3956 10.3305 29.9506 11.6269C29.5024 10.3359 29.2759 8.97568 29.2759 7.56775C29.2759 6.16055 29.5023 4.80021 29.9506 3.50923ZM12.3518 14.0905C12.3384 14.0173 12.37 13.9648 12.3908 13.9407C12.4109 13.9158 12.4559 13.8748 12.5305 13.8748H14.4862C14.5608 13.8748 14.6058 13.9158 14.626 13.9407C14.6462 13.9655 14.6784 14.0173 14.6643 14.0905L14.4311 15.3069H12.585L12.3518 14.0905ZM11.0178 16.7788C11.0178 16.5362 11.2147 16.3392 11.4573 16.3392H12.1583H14.8579H15.5589C15.8016 16.3392 15.9984 16.5361 15.9984 16.7788C15.9984 17.0214 15.8016 17.2183 15.5589 17.2183H15.1725C15.1701 17.2183 15.1681 17.217 15.1657 17.217H11.8512C11.8488 17.217 11.8469 17.2183 11.8445 17.2183H11.4573C11.2147 17.2183 11.0178 17.0214 11.0178 16.7788ZM12.3518 18.2505H14.665C14.7867 20.2696 15.625 22.1625 16.9708 23.6228H10.045C11.3915 22.1626 12.2302 20.2698 12.3518 18.2505ZM4.85377 30.0926C4.85377 28.1995 6.02781 26.4267 8.07552 25.2284C8.37323 25.0543 8.65616 24.861 8.92767 24.655H18.0876C18.3588 24.861 18.6417 25.0542 18.939 25.2284C20.9881 26.4273 22.1635 28.2001 22.1635 30.0926C22.1635 33.5443 18.2798 36.3521 13.5063 36.3521C8.73548 36.3521 4.85377 33.5443 4.85377 30.0926ZM33.4533 36.3521V33.3823C33.4533 33.0973 33.2221 32.8662 32.9372 32.8662C32.6522 32.8662 32.421 33.0973 32.421 33.3823V36.3521H25.3646V13.52H29.954H29.9553H34.3915V36.3521H33.4533ZM9.4862 26.6175C9.63007 26.8636 9.54738 27.18 9.30135 27.3239C8.0177 28.0746 7.28117 29.084 7.28117 30.092C7.28117 30.377 7.05003 30.6081 6.76506 30.6081C6.48008 30.6081 6.24896 30.377 6.24896 30.092C6.24896 28.7077 7.17167 27.3737 8.77984 26.4328C9.02515 26.2875 9.34245 26.3715 9.4862 26.6175ZM27.7127 16.2263V22.2278C27.7127 22.5127 27.4815 22.7439 27.1966 22.7439C26.9116 22.7439 26.6805 22.5127 26.6805 22.2278V16.2263C26.6805 15.9414 26.9116 15.7103 27.1966 15.7103C27.4815 15.7103 27.7127 15.9414 27.7127 16.2263ZM27.7127 24.3151V24.9362C27.7127 25.2211 27.4815 25.4523 27.1966 25.4523C26.9116 25.4523 26.6805 25.221 26.6805 24.9362V24.3151C26.6805 24.0302 26.9116 23.799 27.1966 23.799C27.4815 23.7989 27.7127 24.0302 27.7127 24.3151Z" fill="#FD8763"/>
</svg>
